<?xml version="1.0" encoding="UTF-8"?>
<svg id="Layer_1" data-name="Layer 1" xmlns="http://www.w3.org/2000/svg" viewBox="0 0 120 20">
  <defs>
    <style>
      .cls-1 {
        fill: #ff7bac;
      }

      .cls-1, .cls-2 {
        stroke-width: 0px;
      }

      .cls-2 {
        fill: #fff;
      }
    </style>
  </defs>
  <path class="cls-2" d="M60,19.5C24.41,19.5.5,14.59.5,10S24.41.5,60,.5s59.5,4.91,59.5,9.5-23.91,9.5-59.5,9.5Z"/>
  <path class="cls-1" d="M60,1c15.97,0,30.98,1.04,42.26,2.92,13.21,2.2,16.74,4.86,16.74,6.08s-3.53,3.88-16.74,6.08c-11.28,1.88-26.29,2.92-42.26,2.92s-30.98-1.04-42.26-2.92C4.53,13.88,1,11.22,1,10s3.53-3.88,16.74-6.08c11.28-1.88,26.29-2.92,42.26-2.92M60,0C26.86,0,0,4.48,0,10s26.86,10,60,10,60-4.48,60-10S93.14,0,60,0h0Z"/>
</svg>